<svg id="svg" version="1.1" xmlns="http://www.w3.org/2000/svg" xmlns:xlink="http://www.w3.org/1999/xlink" width="400" height="400" viewBox="0, 0, 400,400"><g id="svgg"><path id="path0" d="M94.000 168.565 C 93.230 168.862,85.760 171.987,77.400 175.510 C 38.424 191.936,42.400 190.180,42.400 190.969 C 42.400 191.547,44.166 192.296,56.200 196.821 C 60.380 198.393,69.290 201.751,76.000 204.284 C 82.710 206.816,89.550 209.390,91.200 210.004 C 102.758 214.302,137.608 227.539,140.303 228.654 C 144.750 230.495,166.322 238.594,167.691 238.937 C 168.608 239.167,168.815 239.066,168.991 238.305 C 169.357 236.713,169.448 195.200,169.085 195.200 C 168.894 195.200,163.757 193.326,157.669 191.036 C 129.249 180.344,124.739 178.643,121.000 177.204 C 98.015 168.355,96.121 167.749,94.000 168.565 M228.251 230.300 C 228.118 236.845,227.917 246.651,227.804 252.092 L 227.599 261.984 228.699 262.250 C 229.305 262.396,234.236 264.199,239.659 266.258 C 251.757 270.850,249.285 270.914,261.800 265.687 C 264.440 264.585,270.920 261.931,276.200 259.789 C 301.404 249.566,304.800 248.096,304.800 247.403 C 304.800 246.331,307.156 247.261,249.537 225.575 C 239.053 221.629,230.028 218.400,229.483 218.400 L 228.492 218.400 228.251 230.300 " stroke="none" fill="#2384ac" fill-rule="evenodd"></path><path id="path1" d="M126.539 74.968 C 110.379 78.888,106.574 101.175,119.022 119.000 C 125.980 128.963,132.595 133.677,146.600 138.650 C 158.735 142.959,157.667 143.896,157.969 128.676 C 158.183 117.853,158.260 116.898,159.022 115.601 C 162.055 110.438,169.182 111.592,170.774 117.505 C 171.253 119.281,170.939 142.330,169.898 182.000 C 169.630 192.230,169.392 205.550,169.370 211.600 C 169.328 223.174,168.972 249.682,168.415 282.781 C 168.072 303.117,168.119 303.943,169.682 304.949 C 170.450 305.444,204.258 317.370,220.540 322.890 C 227.438 325.229,226.715 327.679,227.120 300.596 C 227.304 288.278,227.442 276.490,227.427 274.400 C 227.412 272.310,227.631 257.550,227.912 241.600 C 228.194 225.650,228.695 196.850,229.025 177.600 C 229.712 137.567,229.458 139.979,233.185 138.100 C 235.430 136.968,236.576 136.968,238.792 138.100 C 242.304 139.895,242.173 139.231,242.400 156.418 C 242.640 174.632,241.265 172.166,253.400 176.149 C 267.115 180.650,268.782 180.834,275.476 178.587 C 294.715 172.129,292.972 143.034,272.273 125.139 C 268.255 121.665,262.478 118.791,253.200 115.649 C 249.350 114.345,239.540 110.903,231.400 108.000 C 223.260 105.096,214.890 102.127,212.800 101.402 C 207.461 99.548,180.651 90.027,159.800 82.578 C 135.874 74.032,133.056 73.387,126.539 74.968 " stroke="none" fill="#dc052d" fill-rule="evenodd"></path><path id="path2" d="M307.400 247.614 C 306.740 247.786,302.870 249.310,298.800 251.000 C 294.730 252.690,288.610 255.214,285.200 256.610 C 281.790 258.005,273.690 261.330,267.200 263.997 C 260.710 266.664,253.240 269.657,250.600 270.646 C 247.960 271.636,242.830 273.675,239.200 275.178 C 231.259 278.466,229.833 278.938,228.570 278.696 C 227.689 278.528,227.600 278.643,227.595 279.955 C 227.531 297.280,226.703 323.044,226.192 323.609 C 223.936 326.102,227.650 324.999,241.558 319.048 C 248.951 315.885,257.880 312.082,261.400 310.597 C 267.858 307.873,283.784 301.099,308.400 290.606 C 340.320 276.999,346.550 274.348,352.600 271.799 C 363.286 267.297,363.607 267.844,346.436 261.320 C 340.366 259.014,334.230 256.710,332.800 256.201 C 331.370 255.692,328.490 254.617,326.400 253.811 C 324.310 253.006,321.700 252.020,320.600 251.620 C 319.500 251.220,316.800 250.177,314.600 249.303 C 309.827 247.405,308.972 247.205,307.400 247.614 " stroke="none" fill="#f3c30e" fill-rule="evenodd"></path><path id="path3" d="M127.248 73.807 C 111.695 76.623,105.679 96.347,114.928 114.200 C 122.272 128.377,134.470 137.008,154.838 142.442 C 158.625 143.453,158.800 142.923,158.800 130.429 C 158.800 118.873,159.082 116.773,160.881 114.917 C 163.776 111.929,168.531 113.231,169.630 117.312 C 170.101 119.061,169.399 185.535,168.862 190.000 C 168.449 193.436,170.808 194.020,143.800 183.801 C 95.948 165.695,96.560 165.910,94.518 166.474 C 92.575 167.010,41.354 188.607,40.143 189.400 C 37.264 191.287,38.589 192.206,50.844 196.815 C 94.076 213.075,115.134 221.021,129.800 226.609 C 135.960 228.956,146.220 232.840,152.600 235.239 C 166.534 240.480,167.139 240.739,167.647 241.688 C 167.912 242.183,167.890 252.684,167.581 273.064 C 167.094 305.142,167.094 305.145,168.756 305.819 C 169.110 305.962,174.980 308.027,181.800 310.407 C 188.620 312.788,199.690 316.661,206.400 319.014 C 224.857 325.487,225.534 325.694,226.751 325.248 C 227.688 324.904,227.708 324.860,226.938 324.832 C 225.993 324.797,223.663 324.006,191.646 312.850 C 177.617 307.961,169.591 304.969,169.046 304.422 C 168.089 303.464,168.075 300.990,168.793 259.902 C 169.163 238.684,169.205 239.350,167.455 238.864 C 165.726 238.383,146.382 231.117,141.034 228.940 C 137.482 227.493,103.140 214.444,91.200 210.004 C 89.550 209.390,82.710 206.816,76.000 204.284 C 69.290 201.751,60.380 198.393,56.200 196.821 C 44.166 192.296,42.400 191.547,42.400 190.969 C 42.400 190.263,42.308 190.308,53.004 185.795 C 58.062 183.661,69.490 178.840,78.400 175.082 C 89.020 170.602,95.082 168.249,96.000 168.251 C 97.214 168.254,104.922 171.014,121.000 177.204 C 124.739 178.643,129.249 180.344,157.669 191.036 C 170.656 195.922,169.487 195.722,169.764 193.100 C 169.986 190.989,170.900 139.188,170.965 125.000 C 171.012 114.831,170.040 112.849,164.826 112.485 C 159.076 112.083,158.259 114.011,157.969 128.676 C 157.710 141.729,157.684 141.849,155.219 141.442 C 150.373 140.640,135.854 134.776,131.833 131.997 C 104.792 113.303,105.122 74.238,132.320 74.421 C 136.568 74.449,139.377 75.283,159.800 82.578 C 180.651 90.027,207.461 99.548,212.800 101.402 C 214.890 102.127,223.260 105.096,231.400 108.000 C 239.540 110.903,249.350 114.345,253.200 115.649 C 262.478 118.791,268.255 121.665,272.273 125.139 C 292.972 143.034,294.715 172.129,275.476 178.587 C 268.782 180.834,267.115 180.650,253.400 176.149 C 241.265 172.166,242.640 174.632,242.400 156.418 C 242.173 139.231,242.304 139.895,238.792 138.100 C 235.556 136.446,232.103 137.573,230.514 140.800 C 229.678 142.498,228.400 186.727,228.400 213.978 L 228.400 218.400 229.437 218.400 C 230.008 218.400,239.053 221.629,249.537 225.575 C 307.156 247.261,304.800 246.331,304.800 247.403 C 304.800 248.096,301.404 249.566,276.200 259.789 C 270.920 261.931,264.440 264.585,261.800 265.687 C 249.285 270.914,251.757 270.850,239.659 266.258 C 234.236 264.199,229.331 262.403,228.758 262.265 L 227.716 262.014 227.432 269.584 C 227.161 276.803,227.352 278.799,228.314 278.801 C 228.471 278.801,228.542 276.076,228.470 272.746 C 228.316 265.553,228.444 264.800,229.817 264.800 C 231.945 264.800,246.400 270.586,246.400 271.437 C 246.400 272.457,247.698 271.993,267.200 263.995 C 273.250 261.513,281.170 258.265,284.800 256.776 C 288.430 255.288,294.730 252.684,298.800 250.991 C 302.870 249.298,306.697 247.821,307.305 247.710 C 310.472 247.130,308.286 245.857,296.502 241.418 C 285.523 237.282,262.514 228.599,251.400 224.398 C 247.440 222.901,241.770 220.740,238.800 219.597 C 235.830 218.454,232.816 217.327,232.102 217.093 C 229.185 216.136,229.007 212.572,230.010 175.200 C 230.213 167.610,230.389 157.530,230.400 152.800 C 230.427 140.618,231.290 138.400,236.000 138.400 C 241.096 138.400,241.578 140.097,241.590 158.078 C 241.602 175.051,240.587 173.037,250.800 176.347 C 265.732 181.185,264.552 180.906,269.000 180.660 C 293.922 179.284,297.382 148.206,275.034 126.473 C 269.259 120.857,265.009 118.522,253.556 114.675 C 250.610 113.685,245.410 111.887,242.000 110.679 C 238.590 109.471,232.470 107.312,228.400 105.880 C 224.330 104.449,216.140 101.537,210.200 99.409 C 204.260 97.281,194.540 93.836,188.600 91.754 C 182.660 89.672,175.910 87.276,173.600 86.430 C 171.290 85.583,168.590 84.617,167.600 84.283 C 166.610 83.949,160.670 81.842,154.400 79.601 C 135.897 72.989,134.001 72.584,127.248 73.807 " stroke="none" fill="#94bfd0" fill-rule="evenodd"></path></g></svg>