<svg id="svg" version="1.1" xmlns="http://www.w3.org/2000/svg" xmlns:xlink="http://www.w3.org/1999/xlink" width="400" height="400" viewBox="0, 0, 400,400"><g id="svgg"><path id="path0" d="M90.280 134.548 C 77.703 139.871,67.536 144.343,67.687 144.486 C 67.971 144.753,149.429 175.926,149.843 175.926 C 149.970 175.926,155.480 177.947,162.088 180.418 C 168.696 182.888,174.178 184.834,174.270 184.742 C 174.935 184.077,174.893 147.886,174.226 147.625 C 170.211 146.051,114.119 125.064,113.704 124.981 C 113.398 124.919,102.857 129.225,90.280 134.548 M223.180 166.781 C 223.081 167.431,222.902 175.880,222.782 185.556 L 222.564 203.148 231.745 206.588 C 236.794 208.479,241.093 210.024,241.296 210.019 C 242.144 210.002,288.104 190.549,287.859 190.311 C 287.658 190.115,243.394 173.145,225.661 166.466 L 223.359 165.598 223.180 166.781 M130.898 279.012 C 130.794 279.284,130.758 280.909,130.817 282.624 L 130.926 285.741 135.093 285.845 L 139.259 285.950 139.259 282.234 L 139.259 278.519 135.174 278.519 C 132.110 278.519,131.040 278.642,130.898 279.012 M130.911 289.722 C 130.813 289.977,130.777 299.435,130.830 310.741 L 130.926 331.296 135.093 331.401 L 139.259 331.506 139.259 310.383 L 139.259 289.259 135.174 289.259 C 132.246 289.259,131.038 289.391,130.911 289.722 M150.176 289.706 C 150.075 289.969,150.036 299.435,150.089 310.741 L 150.185 331.296 154.352 331.401 L 158.519 331.506 158.519 312.975 L 158.519 294.444 164.811 294.444 L 171.104 294.444 171.200 312.870 L 171.296 331.296 175.370 331.296 L 179.444 331.296 179.540 312.870 L 179.637 294.444 184.398 294.444 C 192.405 294.444,191.986 293.362,192.222 314.630 L 192.407 331.296 196.481 331.296 L 200.556 331.296 200.547 314.259 C 200.537 293.052,200.268 291.797,195.336 290.004 C 193.275 289.255,150.457 288.972,150.176 289.706 M307.207 289.722 C 307.110 289.977,307.074 303.435,307.127 319.630 L 307.222 349.074 311.296 349.074 L 315.370 349.074 315.465 321.728 L 315.560 294.382 321.762 294.506 C 331.934 294.709,331.564 294.072,331.407 311.104 C 331.262 326.874,331.561 326.296,323.537 326.296 L 318.889 326.296 318.889 328.923 L 318.889 331.550 326.019 331.410 C 339.455 331.146,339.815 330.597,339.815 310.370 C 339.815 288.959,340.107 289.259,319.229 289.259 C 310.094 289.259,307.344 289.365,307.207 289.722 " stroke="none" fill="#1e87ab" fill-rule="evenodd"></path><path id="path1" d="M275.556 195.799 C 268.528 198.757,253.715 204.988,242.638 209.648 C 231.561 214.307,222.452 218.167,222.395 218.226 C 221.776 218.868,221.828 255.225,222.447 254.904 C 222.833 254.703,247.783 244.000,277.891 231.118 C 308.000 218.236,332.576 207.638,332.504 207.566 C 332.366 207.428,288.498 190.352,288.394 190.396 C 288.360 190.410,282.583 192.841,275.556 195.799 M97.407 291.808 L 97.407 294.444 103.469 294.444 C 112.722 294.444,112.217 293.404,112.220 312.500 L 112.222 326.296 106.354 326.296 C 99.188 326.296,98.960 326.146,98.145 320.876 C 97.013 313.552,98.479 311.377,104.729 311.111 L 109.074 310.926 109.074 308.519 L 109.074 306.111 102.778 306.117 C 95.698 306.123,95.039 306.303,92.989 308.789 C 89.063 313.548,89.099 324.247,93.056 328.753 C 95.294 331.302,95.189 331.284,108.426 331.412 L 120.370 331.528 120.370 314.545 C 120.370 289.050,120.684 289.588,105.663 289.319 L 97.407 289.171 97.407 291.808 M266.448 289.769 C 266.335 290.063,266.306 297.861,266.384 307.096 C 266.599 332.539,265.586 331.296,286.111 331.296 L 298.333 331.296 298.333 310.370 L 298.333 289.444 294.352 289.339 L 290.370 289.234 290.370 307.765 L 290.370 326.296 284.050 326.296 C 274.255 326.296,275.054 328.026,274.815 306.296 L 274.630 289.444 270.641 289.339 C 267.436 289.255,266.613 289.339,266.448 289.769 " stroke="none" fill="#f2c20b" fill-rule="evenodd"></path><path id="path2" d="M137.593 47.362 C 124.556 52.068,121.283 69.893,130.852 84.074 C 135.156 90.453,141.054 96.246,145.560 98.521 C 148.462 99.986,164.377 105.558,164.989 105.323 C 165.815 105.006,165.852 104.638,166.122 93.848 C 166.406 82.529,166.590 81.540,168.551 80.727 C 171.009 79.709,173.771 80.879,174.414 83.210 C 174.746 84.412,173.933 145.450,173.580 145.803 C 173.493 145.890,160.072 140.953,143.757 134.832 C 127.442 128.712,113.819 123.704,113.485 123.704 C 112.679 123.704,66.996 142.908,66.351 143.518 C 64.881 144.907,64.858 144.897,108.064 161.386 C 131.027 170.149,150.148 177.401,150.556 177.502 C 152.053 177.874,172.419 185.620,172.751 185.945 C 172.962 186.151,172.940 196.305,172.693 212.307 C 172.472 226.621,172.426 238.575,172.591 238.871 C 172.806 239.256,211.811 253.035,221.568 256.173 C 222.318 256.414,333.023 209.153,333.745 208.283 C 334.082 207.877,334.107 207.540,333.833 207.099 C 333.400 206.402,305.770 195.595,257.037 177.062 C 239.213 170.283,224.587 164.698,224.535 164.651 C 224.387 164.515,225.176 114.521,225.421 108.541 C 225.635 103.302,225.661 103.171,226.680 102.152 C 228.186 100.646,230.722 100.665,232.251 102.194 L 233.333 103.276 233.339 116.175 C 233.342 123.270,233.472 129.274,233.627 129.519 C 234.380 130.704,251.197 135.998,254.836 136.196 C 281.448 137.644,279.655 96.642,252.566 84.288 C 248.806 82.573,150.186 47.479,147.983 47.072 C 144.606 46.448,139.750 46.583,137.593 47.362 M148.032 48.359 C 149.581 48.679,152.449 49.524,154.405 50.236 C 156.362 50.948,178.703 58.950,204.052 68.018 C 257.522 87.147,256.429 86.680,262.243 92.844 C 278.868 110.467,275.425 134.862,256.296 134.977 L 252.407 135.000 243.629 132.040 L 234.850 129.081 234.740 116.300 C 234.606 100.771,234.354 99.949,229.722 99.893 C 223.863 99.822,224.000 98.735,223.645 148.096 L 223.519 165.637 256.111 178.026 C 297.064 193.593,333.009 207.485,332.821 207.672 C 332.742 207.751,307.837 218.448,277.476 231.442 L 222.274 255.069 204.007 248.801 C 193.961 245.354,183.017 241.589,179.687 240.434 L 173.634 238.333 173.684 229.815 C 173.712 225.130,173.882 213.132,174.063 203.152 C 174.243 193.173,174.362 184.992,174.325 184.972 C 173.985 184.782,150.017 175.926,149.843 175.926 C 149.429 175.926,67.971 144.753,67.687 144.486 C 67.536 144.343,77.786 139.861,90.465 134.526 L 113.519 124.825 144.059 136.286 C 160.856 142.589,174.682 147.664,174.783 147.563 C 175.387 146.959,175.956 83.889,175.371 82.358 C 173.810 78.271,167.703 78.056,165.655 82.017 C 165.203 82.892,165.055 85.175,164.910 93.499 C 164.811 99.214,164.669 103.955,164.594 104.036 C 164.305 104.350,147.841 98.395,145.683 97.196 C 137.838 92.836,129.566 82.062,127.362 73.333 C 123.333 57.375,133.311 45.319,148.032 48.359 M222.593 209.398 C 222.593 212.734,222.488 215.984,222.361 216.620 C 222.209 217.382,222.276 217.778,222.557 217.778 C 222.902 217.778,240.699 210.478,241.015 210.207 C 241.126 210.112,223.217 203.333,222.855 203.333 C 222.711 203.333,222.593 206.062,222.593 209.398 M237.610 210.290 C 237.553 210.348,234.400 211.704,230.605 213.303 L 223.704 216.210 223.704 210.552 L 223.704 204.893 230.709 207.539 C 234.563 208.995,237.668 210.232,237.610 210.290 M60.013 278.124 C 59.802 278.518,59.630 279.862,59.630 281.111 C 59.630 284.830,59.607 284.815,65.198 284.815 L 70.000 284.815 70.000 308.259 C 70.000 326.000,70.108 331.812,70.444 332.148 C 71.059 332.763,79.682 332.763,80.296 332.148 C 80.633 331.812,80.741 326.000,80.741 308.259 L 80.741 284.815 85.852 284.815 C 91.951 284.815,91.852 284.876,91.852 281.111 C 91.852 279.416,91.675 278.120,91.407 277.852 C 90.535 276.980,60.486 277.240,60.013 278.124 M130.074 277.852 C 129.465 278.461,129.465 285.983,130.074 286.593 C 130.371 286.890,132.019 287.037,135.048 287.037 C 140.825 287.037,140.741 287.108,140.741 282.222 C 140.741 277.336,140.825 277.407,135.048 277.407 C 132.019 277.407,130.371 277.555,130.074 277.852 M232.667 277.852 C 232.024 278.495,232.024 331.505,232.667 332.148 C 232.994 332.476,236.299 332.593,245.233 332.593 C 259.369 332.593,258.519 332.830,258.519 328.889 C 258.519 325.094,258.725 325.185,250.159 325.185 L 242.963 325.185 242.963 301.741 C 242.963 284.000,242.855 278.188,242.519 277.852 C 242.222 277.555,240.584 277.407,237.593 277.407 C 234.601 277.407,232.963 277.555,232.667 277.852 M90.741 281.111 L 90.741 283.704 85.188 283.704 L 79.635 283.704 79.540 307.500 L 79.444 331.296 75.278 331.401 L 71.111 331.506 71.111 307.615 L 71.111 283.725 66.019 283.622 L 60.926 283.519 60.812 281.526 C 60.626 278.253,59.290 278.519,75.914 278.519 L 90.741 278.519 90.741 281.111 M139.259 282.234 L 139.259 285.950 135.093 285.845 L 130.926 285.741 130.817 282.624 C 130.666 278.283,130.416 278.519,135.174 278.519 L 139.259 278.519 139.259 282.234 M241.852 302.407 L 241.852 326.296 249.444 326.296 L 257.037 326.296 257.037 328.889 L 257.037 331.481 245.185 331.481 L 233.333 331.481 233.333 305.000 L 233.333 278.519 237.593 278.519 L 241.852 278.519 241.852 302.407 M96.322 288.841 C 95.775 289.864,95.822 294.166,96.389 294.912 C 96.779 295.425,97.820 295.538,103.043 295.631 C 111.432 295.780,110.532 293.949,110.661 311.135 L 110.766 325.207 105.846 325.103 L 100.926 325.000 100.185 323.519 C 99.583 322.313,99.444 321.296,99.444 318.066 C 99.444 312.621,99.598 312.469,105.282 312.281 C 107.571 312.205,109.653 311.974,109.907 311.767 C 110.522 311.268,110.537 305.871,109.926 305.259 C 109.132 304.465,96.826 304.674,94.979 305.513 C 86.579 309.329,86.594 327.989,95.000 331.889 C 97.403 333.004,120.891 332.955,121.491 331.833 C 122.263 330.392,121.796 296.502,120.974 294.287 C 119.029 289.046,117.320 288.368,105.674 288.217 C 97.038 288.105,96.704 288.127,96.322 288.841 M130.074 288.593 C 129.432 289.234,129.432 331.506,130.074 332.148 C 130.796 332.870,139.417 332.753,140.159 332.011 C 141.043 331.126,141.043 289.615,140.159 288.730 C 139.417 287.988,130.796 287.871,130.074 288.593 M149.279 288.851 C 148.744 289.851,148.737 330.877,149.272 331.876 C 149.797 332.857,158.457 332.972,159.418 332.011 C 159.931 331.498,160.000 329.304,160.000 313.492 L 160.000 295.556 165.000 295.556 L 170.000 295.556 170.000 313.630 C 170.000 327.193,170.111 331.815,170.444 332.148 C 171.059 332.763,179.682 332.763,180.296 332.148 C 180.630 331.815,180.741 327.193,180.741 313.630 L 180.741 295.556 184.427 295.556 C 191.306 295.556,190.890 294.331,191.039 314.991 C 191.119 325.974,191.293 331.810,191.551 332.121 C 192.290 333.011,200.993 332.765,201.488 331.839 C 202.224 330.464,201.795 296.111,201.017 294.142 C 200.039 291.664,198.989 290.437,196.912 289.342 L 195.000 288.333 172.335 288.227 C 150.106 288.123,149.663 288.135,149.279 288.851 M265.630 288.593 C 265.011 289.212,264.999 321.912,265.617 324.988 C 266.207 327.927,267.867 330.280,270.185 331.463 L 272.037 332.407 285.311 332.518 C 295.044 332.598,298.725 332.512,299.108 332.194 C 299.820 331.604,299.895 289.302,299.185 288.593 C 298.352 287.760,289.737 287.996,289.272 288.865 C 289.023 289.330,288.889 295.820,288.889 307.383 L 288.889 325.185 283.981 325.180 C 275.422 325.171,276.142 326.922,275.997 305.753 C 275.922 294.679,275.751 288.940,275.489 288.623 C 274.954 287.979,266.271 287.951,265.630 288.593 M306.309 288.865 C 306.054 289.341,305.926 299.510,305.926 319.259 C 305.926 339.009,306.054 349.177,306.309 349.654 C 306.774 350.523,315.389 350.759,316.222 349.926 C 316.560 349.588,316.667 342.986,316.667 322.472 L 316.667 295.462 321.972 295.622 C 330.643 295.883,330.252 295.175,330.324 310.741 C 330.392 325.489,330.648 324.954,323.448 325.113 C 317.443 325.247,317.407 325.268,317.407 328.799 C 317.407 332.764,317.050 332.593,325.316 332.593 C 340.171 332.593,340.865 331.670,341.048 311.667 C 341.265 288.067,341.339 288.148,319.575 288.148 C 307.218 288.148,306.677 288.177,306.309 288.865 M115.835 290.146 C 120.301 292.063,120.552 293.343,120.554 314.259 L 120.556 331.296 108.739 331.394 C 97.407 331.488,96.857 331.460,95.325 330.719 C 87.930 327.139,88.287 309.670,95.821 306.437 C 96.675 306.071,98.751 305.926,103.136 305.926 L 109.259 305.926 109.259 308.519 L 109.259 311.111 105.463 311.112 C 99.273 311.113,98.211 312.094,98.169 317.852 C 98.112 325.614,98.773 326.296,106.347 326.296 L 112.269 326.296 112.153 311.944 C 112.002 293.265,112.748 294.744,103.333 294.450 L 97.222 294.259 97.109 292.266 C 96.921 288.977,96.314 289.181,105.833 289.334 C 112.964 289.449,114.501 289.574,115.835 290.146 M139.259 310.383 L 139.259 331.506 135.093 331.401 L 130.926 331.296 130.830 310.741 C 130.777 299.435,130.813 289.977,130.911 289.722 C 131.038 289.391,132.246 289.259,135.174 289.259 L 139.259 289.259 139.259 310.383 M195.336 290.004 C 200.268 291.797,200.537 293.052,200.547 314.259 L 200.556 331.296 196.481 331.296 L 192.407 331.296 192.222 314.630 C 191.986 293.362,192.405 294.444,184.398 294.444 L 179.637 294.444 179.540 312.870 L 179.444 331.296 175.370 331.296 L 171.296 331.296 171.200 312.870 L 171.104 294.444 164.811 294.444 L 158.519 294.444 158.519 312.975 L 158.519 331.506 154.352 331.401 L 150.185 331.296 150.089 310.741 C 150.036 299.435,150.075 289.969,150.176 289.706 C 150.457 288.972,193.275 289.255,195.336 290.004 M274.815 306.111 C 275.055 327.720,274.412 326.296,283.935 326.296 L 289.993 326.296 290.089 307.870 L 290.185 289.444 294.352 289.340 L 298.519 289.235 298.519 310.380 L 298.519 331.525 285.648 331.411 C 265.353 331.230,266.555 332.757,266.378 306.932 L 266.257 289.235 270.443 289.340 L 274.630 289.444 274.815 306.111 M332.931 289.657 C 339.129 290.987,339.815 293.049,339.815 310.370 C 339.815 330.597,339.455 331.146,326.019 331.410 L 318.889 331.550 318.889 328.923 L 318.889 326.296 323.537 326.296 C 331.561 326.296,331.262 326.874,331.407 311.104 C 331.564 294.072,331.934 294.709,321.762 294.506 L 315.560 294.382 315.465 321.728 L 315.370 349.074 311.296 349.074 L 307.222 349.074 307.127 319.630 C 307.074 303.435,307.110 289.977,307.207 289.722 C 307.438 289.118,330.148 289.061,332.931 289.657 " stroke="none" fill="#060404" fill-rule="evenodd"></path><path id="path3" d="M139.730 48.148 C 124.888 51.266,122.236 71.285,134.617 86.740 C 141.817 95.728,143.302 96.672,158.558 101.978 L 164.338 103.988 164.575 100.420 C 164.705 98.457,164.816 93.852,164.821 90.185 C 164.833 82.047,165.202 80.813,167.994 79.578 C 170.971 78.261,174.016 79.243,175.439 81.977 C 176.141 83.328,176.148 85.618,175.551 120.556 C 175.353 132.167,175.024 152.667,174.821 166.111 C 174.617 179.556,174.270 201.202,174.050 214.214 C 173.830 227.226,173.787 238.002,173.955 238.161 C 174.518 238.695,221.157 254.522,221.413 254.266 C 221.686 253.994,221.770 249.487,223.153 161.708 C 223.993 108.373,224.112 103.870,224.716 102.639 C 226.621 98.757,232.396 98.598,234.113 102.379 C 234.736 103.751,234.799 105.024,234.807 116.348 L 234.815 128.808 240.093 130.656 C 254.965 135.862,258.037 136.172,264.259 133.090 C 279.461 125.560,272.865 96.625,253.637 86.487 C 250.397 84.778,156.634 50.885,150.082 49.054 C 146.557 48.069,142.004 47.670,139.730 48.148 M61.111 281.111 L 61.111 283.333 66.111 283.333 L 71.111 283.333 71.111 307.222 L 71.111 331.111 75.182 331.111 L 79.254 331.111 79.349 307.315 L 79.444 283.519 85.093 283.416 L 90.741 283.314 90.741 281.101 L 90.741 278.889 75.926 278.889 L 61.111 278.889 61.111 281.111 M233.333 305.000 L 233.333 331.111 245.185 331.111 L 257.037 331.111 257.037 328.889 L 257.037 326.667 249.444 326.667 L 241.852 326.667 241.852 302.778 L 241.852 278.889 237.593 278.889 L 233.333 278.889 233.333 305.000 " stroke="none" fill="#db042b" fill-rule="evenodd"></path><path id="path4" d="M169.722 79.144 C 170.079 79.237,170.662 79.237,171.019 79.144 C 171.375 79.051,171.083 78.975,170.370 78.975 C 169.657 78.975,169.366 79.051,169.722 79.144 M164.921 87.593 C 164.924 88.611,164.995 88.984,165.081 88.421 C 165.166 87.858,165.163 87.025,165.076 86.569 C 164.988 86.113,164.918 86.574,164.921 87.593 M175.704 103.519 C 175.704 106.574,175.762 107.775,175.831 106.187 C 175.901 104.599,175.900 102.099,175.830 100.631 C 175.760 99.164,175.703 100.463,175.704 103.519 M164.566 101.667 C 164.568 103.093,164.635 103.631,164.715 102.862 C 164.795 102.094,164.794 100.927,164.712 100.270 C 164.630 99.612,164.564 100.241,164.566 101.667 M223.852 119.074 C 223.852 122.130,223.910 123.330,223.979 121.742 C 224.049 120.154,224.048 117.654,223.978 116.187 C 223.908 114.719,223.851 116.019,223.852 119.074 M175.333 126.852 C 175.334 129.907,175.391 131.108,175.461 129.520 C 175.530 127.932,175.530 125.432,175.460 123.965 C 175.390 122.497,175.333 123.796,175.333 126.852 M223.481 142.037 C 223.482 145.093,223.539 146.293,223.609 144.705 C 223.679 143.117,223.678 140.617,223.608 139.150 C 223.538 137.682,223.481 138.981,223.481 142.037 M174.955 148.889 C 174.955 151.231,175.015 152.190,175.089 151.019 C 175.162 149.847,175.162 147.931,175.089 146.759 C 175.015 145.588,174.955 146.546,174.955 148.889 M223.098 163.148 C 223.099 165.185,223.161 165.971,223.236 164.895 C 223.311 163.819,223.311 162.152,223.235 161.191 C 223.159 160.231,223.097 161.111,223.098 163.148 M174.580 175.370 C 174.581 177.407,174.643 178.193,174.718 177.117 C 174.793 176.041,174.792 174.374,174.716 173.414 C 174.640 172.453,174.579 173.333,174.580 175.370 M222.726 186.296 C 222.726 188.231,222.789 189.023,222.865 188.056 C 222.941 187.088,222.941 185.505,222.865 184.537 C 222.789 183.569,222.726 184.361,222.726 186.296 M174.223 196.667 C 174.223 199.824,174.280 201.116,174.349 199.537 C 174.419 197.958,174.419 195.375,174.349 193.796 C 174.280 192.218,174.223 193.509,174.223 196.667 M222.370 210.926 C 222.371 213.981,222.428 215.182,222.498 213.594 C 222.567 212.006,222.567 209.506,222.497 208.039 C 222.427 206.571,222.370 207.870,222.370 210.926 M173.853 220.000 C 173.853 223.157,173.910 224.449,173.979 222.870 C 174.048 221.292,174.048 218.708,173.979 217.130 C 173.910 215.551,173.853 216.843,173.853 220.000 M221.391 253.889 C 221.293 254.398,221.357 254.815,221.533 254.815 C 221.708 254.815,221.852 254.398,221.852 253.889 C 221.852 253.380,221.788 252.963,221.710 252.963 C 221.632 252.963,221.488 253.380,221.391 253.889 M60.893 279.026 C 60.786 279.305,60.750 280.430,60.812 281.526 L 60.926 283.519 66.019 283.535 L 71.112 283.551 66.112 283.432 L 61.111 283.312 61.111 281.105 L 61.111 278.897 76.019 278.796 L 90.926 278.695 76.007 278.607 C 63.661 278.534,61.054 278.606,60.893 279.026 M235.477 278.793 C 236.759 278.866,238.759 278.865,239.922 278.792 C 241.085 278.719,240.037 278.659,237.593 278.660 C 235.148 278.661,234.196 278.721,235.477 278.793 M79.506 283.580 C 79.370 283.716,79.259 294.461,79.259 307.457 L 79.259 331.087 75.093 331.211 L 70.926 331.336 75.185 331.316 L 79.444 331.296 79.540 307.510 L 79.635 283.723 85.280 283.610 L 90.926 283.498 85.340 283.416 C 82.267 283.370,79.642 283.444,79.506 283.580 M97.156 291.852 C 97.156 293.176,97.223 293.718,97.305 293.056 C 97.387 292.394,97.387 291.310,97.305 290.648 C 97.223 289.986,97.156 290.528,97.156 291.852 M290.172 307.963 C 290.172 318.148,290.219 322.262,290.278 317.104 C 290.336 311.946,290.336 303.613,290.277 298.585 C 290.219 293.558,290.172 297.778,290.172 307.963 M120.540 315.556 C 120.540 324.213,120.588 327.755,120.648 323.426 C 120.707 319.097,120.707 312.014,120.648 307.685 C 120.588 303.356,120.540 306.898,120.540 315.556 M97.871 318.333 C 97.875 319.148,97.951 319.438,98.040 318.977 C 98.128 318.516,98.125 317.850,98.032 317.496 C 97.940 317.142,97.867 317.519,97.871 318.333 M245.668 326.573 C 247.869 326.638,251.369 326.638,253.446 326.572 C 255.523 326.506,253.722 326.453,249.444 326.453 C 245.167 326.453,243.467 326.507,245.668 326.573 M239.167 331.388 C 242.477 331.450,247.894 331.450,251.204 331.388 C 254.514 331.327,251.806 331.277,245.185 331.277 C 238.565 331.277,235.856 331.327,239.167 331.388 " stroke="none" fill="#890b18" fill-rule="evenodd"></path></g></svg>