<svg id="svg" version="1.1" xmlns="http://www.w3.org/2000/svg" xmlns:xlink="http://www.w3.org/1999/xlink" width="400" height="96.26168224299066" viewBox="0, 0, 400,96.26168224299066"><g id="svgg"><path id="path0" d="M131.033 12.867 C 130.650 13.250,130.761 19.283,131.156 19.494 C 131.500 19.679,138.136 19.737,138.792 19.562 C 139.288 19.428,139.395 12.956,138.903 12.768 C 138.376 12.566,131.245 12.655,131.033 12.867 M130.944 23.611 C 130.727 23.828,130.815 64.748,131.033 64.967 C 131.245 65.178,138.376 65.268,138.903 65.066 C 139.141 64.974,139.167 62.983,139.167 44.232 L 139.167 23.500 135.111 23.500 C 132.881 23.500,131.006 23.550,130.944 23.611 M307.452 23.603 C 307.218 23.837,307.311 82.607,307.546 82.802 C 307.823 83.032,314.470 83.067,315.063 82.841 L 315.499 82.675 315.541 55.463 L 315.583 28.250 321.083 28.261 C 328.915 28.278,330.565 28.831,331.289 31.686 C 331.665 33.170,331.721 55.203,331.353 56.667 C 330.526 59.950,329.638 60.385,323.583 60.470 C 320.432 60.514,319.047 60.590,318.961 60.725 C 318.738 61.075,318.814 64.577,319.052 64.902 C 319.408 65.389,332.247 65.206,333.838 64.692 C 336.357 63.877,338.276 62.099,338.899 60.000 C 339.753 57.122,339.830 55.827,339.832 44.323 C 339.833 32.888,339.753 31.546,338.899 28.667 C 338.413 27.030,335.966 24.333,334.966 24.333 C 334.832 24.333,334.667 24.278,334.600 24.211 C 334.027 23.638,333.257 23.602,320.327 23.543 C 313.311 23.511,307.517 23.538,307.452 23.603 " stroke="none" fill="#188ea8" fill-rule="evenodd"></path><path id="path1" d="M97.375 23.523 C 97.010 23.892,97.091 27.713,97.471 28.058 C 97.742 28.303,98.400 28.333,103.390 28.333 C 112.840 28.333,112.211 27.003,112.135 46.833 L 112.083 60.250 106.387 60.250 C 99.924 60.250,100.215 60.309,99.299 58.817 C 98.391 57.339,98.109 55.776,98.099 52.167 C 98.079 45.589,98.875 44.868,106.175 44.842 C 109.357 44.831,109.167 44.987,109.167 42.404 C 109.167 39.724,109.847 39.971,102.638 40.032 L 96.583 40.083 95.583 40.573 C 87.280 44.641,88.430 63.450,97.083 65.109 C 98.853 65.449,120.040 65.436,120.323 65.096 C 120.652 64.699,120.463 31.988,120.122 30.332 C 119.302 26.345,117.900 24.722,114.417 23.724 C 113.099 23.347,97.729 23.165,97.375 23.523 M266.533 23.533 C 266.212 23.855,266.258 53.716,266.584 56.500 C 266.941 59.538,267.243 60.577,268.179 61.979 C 269.412 63.826,271.367 64.777,274.695 65.152 C 276.844 65.394,297.728 65.402,298.178 65.161 C 298.499 64.989,298.715 24.420,298.399 23.597 C 298.264 23.246,290.610 23.193,290.385 23.542 C 290.311 23.656,290.212 31.962,290.167 42.000 L 290.083 60.250 284.083 60.250 L 278.083 60.250 277.250 59.825 C 274.736 58.542,274.673 58.017,274.669 38.325 C 274.667 27.201,274.619 23.686,274.467 23.533 C 274.183 23.250,266.817 23.250,266.533 23.533 " stroke="none" fill="#eebf05" fill-rule="evenodd"></path><path id="path2" d="M61.182 12.731 C 61.053 12.887,61.005 13.690,61.037 15.190 L 61.083 17.417 65.903 17.461 C 69.119 17.490,70.796 17.567,70.944 17.690 C 71.128 17.842,71.167 21.996,71.167 41.404 C 71.167 59.482,71.213 64.980,71.367 65.133 C 71.650 65.417,79.016 65.417,79.300 65.133 C 79.454 64.980,79.500 59.482,79.500 41.404 C 79.500 21.982,79.539 17.842,79.723 17.689 C 79.873 17.565,81.678 17.490,85.264 17.461 L 90.583 17.417 90.630 15.190 C 90.661 13.690,90.614 12.887,90.485 12.731 C 90.197 12.385,61.469 12.385,61.182 12.731 M233.625 12.680 C 233.145 12.960,233.175 64.904,233.656 65.161 C 234.045 65.369,256.470 65.400,256.797 65.193 C 256.957 65.091,256.998 64.482,256.963 62.737 L 256.917 60.417 249.417 60.329 C 245.292 60.281,241.898 60.225,241.875 60.204 C 241.852 60.183,241.833 49.519,241.833 36.506 C 241.833 13.284,241.827 12.842,241.511 12.673 C 241.084 12.444,234.019 12.451,233.625 12.680 M274.746 36.917 C 274.746 44.158,274.767 47.097,274.792 43.446 C 274.817 39.795,274.817 33.870,274.792 30.279 C 274.767 26.688,274.746 29.675,274.746 36.917 M120.372 33.167 C 120.372 33.487,120.406 33.619,120.448 33.458 C 120.490 33.298,120.490 33.035,120.448 32.875 C 120.406 32.715,120.372 32.846,120.372 33.167 M100.552 39.958 C 102.093 39.986,104.568 39.986,106.052 39.958 C 107.536 39.930,106.275 39.908,103.250 39.908 C 100.225 39.908,99.011 39.931,100.552 39.958 M104.550 44.958 C 105.356 44.988,106.631 44.988,107.383 44.957 C 108.135 44.926,107.475 44.901,105.917 44.902 C 104.358 44.902,103.743 44.927,104.550 44.958 M274.720 52.667 C 274.720 53.262,274.750 53.506,274.787 53.208 C 274.824 52.910,274.824 52.423,274.787 52.125 C 274.750 51.827,274.720 52.071,274.720 52.667 " stroke="none" fill="#d6042a" fill-rule="evenodd"></path><path id="path3" d="M130.839 12.822 C 130.738 13.011,130.667 14.402,130.667 16.167 C 130.667 17.931,130.738 19.323,130.839 19.511 C 131.081 19.962,139.060 20.018,139.232 19.570 C 139.288 19.425,139.333 17.893,139.333 16.167 C 139.333 14.440,139.288 12.909,139.232 12.764 C 139.060 12.316,131.081 12.371,130.839 12.822 M138.903 12.768 C 139.395 12.956,139.288 19.428,138.792 19.562 C 138.136 19.737,131.500 19.679,131.156 19.494 C 130.761 19.283,130.650 13.250,131.033 12.867 C 131.245 12.655,138.376 12.566,138.903 12.768 M130.929 23.429 C 130.607 23.750,130.520 64.415,130.839 65.011 C 131.081 65.462,139.060 65.518,139.232 65.070 C 139.548 64.246,139.332 23.511,139.011 23.339 C 138.439 23.033,131.244 23.113,130.929 23.429 M150.331 23.502 C 149.877 23.956,149.879 64.883,150.333 65.170 C 150.878 65.514,158.302 65.370,158.494 65.011 C 158.610 64.794,158.667 58.722,158.667 46.509 L 158.667 28.329 164.875 28.373 L 171.083 28.417 171.126 46.650 C 171.156 59.788,171.220 64.947,171.354 65.109 C 171.501 65.285,172.370 65.333,175.417 65.333 C 178.463 65.333,179.332 65.285,179.479 65.109 C 179.613 64.947,179.677 59.788,179.708 46.650 L 179.750 28.417 184.073 28.372 C 188.994 28.321,189.520 28.410,190.544 29.462 C 192.205 31.166,192.191 31.007,192.284 49.167 C 192.337 59.602,192.422 64.987,192.536 65.125 C 192.776 65.417,200.175 65.425,200.467 65.133 C 200.725 64.875,200.754 35.064,200.498 32.465 C 199.865 26.030,197.937 23.912,192.191 23.339 C 188.475 22.968,150.718 23.115,150.331 23.502 M307.458 23.347 C 306.978 23.626,307.008 82.737,307.489 82.994 C 308.041 83.289,314.867 83.221,315.260 82.916 C 315.561 82.682,315.550 82.677,315.107 82.835 C 314.372 83.098,307.737 83.036,307.512 82.764 C 307.385 82.611,307.345 73.916,307.375 53.066 L 307.417 23.583 320.000 23.583 C 332.660 23.583,334.264 23.651,334.601 24.195 C 334.648 24.271,334.813 24.332,334.968 24.331 C 336.088 24.321,333.478 23.558,331.578 23.341 C 329.567 23.110,307.855 23.116,307.458 23.347 M139.167 44.232 C 139.167 62.983,139.141 64.974,138.903 65.066 C 138.376 65.268,131.245 65.178,131.033 64.967 C 130.815 64.748,130.727 23.828,130.944 23.611 C 131.006 23.550,132.881 23.500,135.111 23.500 L 139.167 23.500 139.167 44.232 M335.333 24.384 C 335.333 24.423,335.636 24.656,336.007 24.901 C 337.549 25.922,338.656 27.581,339.187 29.667 C 340.140 33.416,340.144 55.392,339.192 59.000 C 338.408 61.975,336.854 63.654,334.000 64.614 C 332.753 65.034,332.934 65.126,334.252 64.742 C 337.429 63.819,339.040 61.508,339.758 56.848 C 340.104 54.603,340.101 34.172,339.755 31.833 C 339.301 28.773,338.692 27.214,337.415 25.849 C 336.800 25.192,335.333 24.159,335.333 24.384 M315.577 28.375 C 315.533 28.490,315.517 40.696,315.541 55.500 L 315.584 82.417 315.626 55.378 L 315.667 28.338 320.458 28.292 L 325.250 28.245 320.453 28.206 C 316.740 28.175,315.638 28.214,315.577 28.375 M327.110 28.669 C 329.227 29.147,330.360 29.823,330.849 30.900 C 331.078 31.404,331.160 31.486,331.163 31.214 C 331.175 30.030,328.179 28.290,326.226 28.347 C 325.964 28.355,326.362 28.500,327.110 28.669 M331.286 33.000 C 331.337 33.779,331.406 34.448,331.440 34.486 C 331.561 34.626,331.463 32.404,331.330 32.000 C 331.249 31.755,331.231 32.168,331.286 33.000 M331.578 45.167 C 331.578 50.163,331.599 52.206,331.625 49.708 C 331.651 47.210,331.651 43.123,331.625 40.625 C 331.599 38.127,331.578 40.171,331.578 45.167 M331.269 55.978 C 331.204 56.470,331.186 56.908,331.229 56.951 C 331.340 57.063,331.551 55.568,331.461 55.302 C 331.421 55.182,331.335 55.486,331.269 55.978 M330.949 57.513 C 330.399 59.707,329.127 60.167,323.606 60.167 C 319.814 60.167,319.153 60.204,318.929 60.429 C 318.594 60.763,318.541 64.808,318.867 65.133 C 319.088 65.355,330.858 65.413,332.068 65.199 C 332.426 65.135,329.693 65.109,325.994 65.141 C 318.054 65.210,318.832 65.468,318.836 62.760 C 318.839 60.313,318.364 60.543,323.583 60.470 C 327.766 60.411,328.136 60.381,328.833 60.049 C 329.974 59.506,331.320 57.878,331.122 57.282 C 331.086 57.174,331.008 57.278,330.949 57.513 " stroke="none" fill="#2a5891" fill-rule="evenodd"></path></g></svg>